<?xml version="1.0" encoding="UTF-8"?>
<svg id="Layer_2" data-name="Layer 2" xmlns="http://www.w3.org/2000/svg" viewBox="0 0 649.03 141.04">
  <defs>
    <style>
      .cls-1 {
        fill: #fff;
        stroke-width: 0px;
      }
    </style>
  </defs>
  <g id="final">
    <g>
      <path class="cls-1" d="m197.2,3.06v134.52c0,1.67-1.35,3.03-3.03,3.03h-52.02c-.8,0-1.57-.32-2.14-.89l-21.95-21.95c-1.18-1.18-3.1-1.18-4.28,0l-21.95,21.95c-.57.57-1.34.89-2.14.89H29.01c-.8,0-1.57-.32-2.14-.89L.89,113.73c-.57-.57-.89-1.34-.89-2.14V29.04c0-.8.32-1.57.89-2.14L26.87.92c.57-.57,1.34-.89,2.14-.89h61.14c.52,0,1.04.14,1.49.39l14.21,8.05c.95.54,1.53,1.54,1.53,2.63v24.04c0,2.15-2.18,3.62-4.17,2.8l-23.39-9.57c-.36-.15-.75-.23-1.15-.23h-38.02c-.8,0-1.57.32-2.14.89l-9.52,9.52c-.57.57-.89,1.34-.89,2.14v59.26c0,.8.32,1.57.89,2.14l9.52,9.52c.57.57,1.34.89,2.14.89h37.39c.8,0,1.57-.32,2.14-.89l26.34-26.34c.57-.57,1.34-.89,2.14-.89h14.5c.8,0,1.57.32,2.14.89l26.34,26.34c.57.57,1.34.89,2.14.89h12.26c1.67,0,3.03-1.35,3.03-3.03V3.06c0-1.67,1.35-3.03,3.03-3.03h22.06c1.67,0,3.03,1.35,3.03,3.03Z"/>
      <g>
        <path class="cls-1" d="m229.42,45.58c-2.74-4.4-4.11-9.6-4.11-15.58s1.38-10.9,4.16-15.25c2.77-4.35,6.7-7.71,11.8-10.1,5.1-2.38,11.08-3.57,17.95-3.57.89,0,1.84.06,2.87.17,1.02.11,1.87.22,2.53.33v12.8c-.5-.11-1.21-.21-2.12-.29s-1.82-.12-2.7-.12c-6.04,0-10.86,1.41-14.46,4.24-3.6,2.83-5.4,6.7-5.4,11.63,0,3.32.82,6.25,2.45,8.77,1.63,2.52,3.91,4.47,6.81,5.86,2.91,1.39,6.3,2.08,10.18,2.08,1.16,0,2.27-.04,3.32-.12,1.05-.08,1.83-.18,2.33-.29v12.71c-.83.17-1.83.3-2.99.42-1.16.11-2.44.17-3.82.17-6.54,0-12.29-1.21-17.24-3.61-4.96-2.41-8.81-5.82-11.55-10.22Z"/>
        <path class="cls-1" d="m272.93,1.58h13.3v17.87h17.62V1.58h13.3v57.34h-13.3v-27.26h-17.62v27.26h-13.3V1.58Z"/>
        <path class="cls-1" d="m327.77,1.58h23.6c6.43,0,11.37,1.44,14.83,4.32,3.46,2.88,5.19,6.98,5.19,12.3,0,6.48-2.83,11.61-8.48,15.37l10.39,25.35h-14.21l-7.73-20.53-10.3,3.07v17.45h-13.3V1.58Zm19.45,26.59c3.77-1,6.45-2.19,8.06-3.57,1.61-1.38,2.41-3.27,2.41-5.65,0-1.83-.69-3.25-2.08-4.28-1.39-1.02-3.35-1.54-5.9-1.54h-8.64v16.7l6.15-1.66Z"/>
        <path class="cls-1" d="m380.04,1.58h13.3v57.34h-13.3V1.58Z"/>
        <path class="cls-1" d="m402.89,46.45c1.27.33,2.76.6,4.45.79,1.69.19,3.2.29,4.53.29,2.49,0,4.45-.47,5.86-1.41,1.41-.94,2.12-2.3,2.12-4.07,0-1.44-.46-2.77-1.37-3.99-.91-1.22-2.51-2.6-4.78-4.15l-3.41-2.33c-5.71-4.1-8.56-8.89-8.56-14.38,0-5.1,1.92-9.07,5.78-11.92,3.85-2.85,9.18-4.28,16-4.28,1.22,0,2.56.08,4.03.25,1.47.17,2.48.31,3.03.42v11.72c-.72-.11-1.65-.22-2.78-.33-1.14-.11-2.26-.17-3.37-.17-2.44,0-4.34.42-5.69,1.25-1.36.83-2.04,1.97-2.04,3.41,0,1.11.36,2.09,1.08,2.95.72.86,2.05,1.95,3.99,3.28l3.41,2.33c6.32,4.54,9.47,9.97,9.47,16.29,0,5.32-1.88,9.5-5.65,12.55-3.77,3.05-8.95,4.57-15.54,4.57-1.77,0-3.68-.12-5.73-.37-2.05-.25-3.66-.54-4.82-.87v-11.8Z"/>
        <path class="cls-1" d="m452,13.79h-15.29V1.58h43.88v12.22h-15.29v45.12h-13.3V13.79Z"/>
        <path class="cls-1" d="m487.53,45.91c-2.63-4.57-3.95-9.79-3.95-15.66s1.32-11.16,3.95-15.71c2.63-4.54,6.26-8.1,10.89-10.68,4.63-2.58,9.96-3.86,16-3.86s11.45,1.29,16.08,3.86c4.63,2.58,8.25,6.14,10.89,10.68,2.63,4.54,3.95,9.78,3.95,15.71s-1.32,11.09-3.95,15.66c-2.63,4.57-6.26,8.14-10.89,10.72-4.63,2.58-9.99,3.86-16.08,3.86s-11.37-1.29-16-3.86c-4.63-2.58-8.26-6.15-10.89-10.72Zm41.76-6.69c1.44-2.6,2.16-5.59,2.16-8.97s-.72-6.37-2.16-8.97c-1.44-2.6-3.44-4.64-5.98-6.11-2.55-1.47-5.51-2.2-8.89-2.2s-6.26.73-8.81,2.2c-2.55,1.47-4.56,3.5-6.02,6.11-1.47,2.6-2.2,5.6-2.2,8.97s.73,6.37,2.2,8.97c1.47,2.6,3.48,4.64,6.02,6.11,2.55,1.47,5.48,2.2,8.81,2.2s6.34-.73,8.89-2.2c2.55-1.47,4.54-3.5,5.98-6.11Z"/>
        <path class="cls-1" d="m553.8,1.58h21.27c7.2,0,12.8,1.58,16.79,4.74,3.99,3.16,5.98,7.56,5.98,13.21s-1.88,10.36-5.65,13.96c-3.77,3.6-9.86,6.62-18.28,9.06l-6.81,1.99v14.38h-13.3V1.58Zm17.62,29.25c4.49-1.22,7.73-2.66,9.72-4.32,1.99-1.66,2.99-3.77,2.99-6.32,0-2.16-.82-3.85-2.45-5.07-1.63-1.22-4-1.83-7.1-1.83h-7.48v18.7l4.32-1.16Z"/>
        <path class="cls-1" d="m604.82,1.58h13.3v17.87h17.62V1.58h13.3v57.34h-13.3v-27.26h-17.62v27.26h-13.3V1.58Z"/>
        <path class="cls-1" d="m222.9,82.37h15.62l16.12,32.91,9.64-17.45-7.48-15.46h15.04l14.71,31.58,15.04-31.58h14.54l-29.09,58.67h-.91l-15.37-30.5-17.87,30.5h-.91l-29.09-58.67Z"/>
        <path class="cls-1" d="m321.87,82.37h38.31v12.22h-25.1v8.39h14.96v11.3h-14.96v13.21h25.6v12.22h-38.81v-57.34Z"/>
        <path class="cls-1" d="m368.49,82.37h13.3v45.12h25.18v12.22h-38.48v-57.34Z"/>
        <path class="cls-1" d="m413.28,127.25c1.27.33,2.76.6,4.45.79,1.69.2,3.2.29,4.53.29,2.49,0,4.45-.47,5.86-1.41,1.41-.94,2.12-2.3,2.12-4.07,0-1.44-.46-2.77-1.37-3.99-.91-1.22-2.51-2.6-4.78-4.15l-3.41-2.33c-5.71-4.1-8.56-8.89-8.56-14.38,0-5.1,1.92-9.07,5.78-11.93,3.85-2.85,9.18-4.28,16-4.28,1.22,0,2.56.08,4.03.25,1.47.17,2.48.31,3.03.42v11.72c-.72-.11-1.65-.22-2.78-.33-1.14-.11-2.26-.17-3.37-.17-2.44,0-4.34.42-5.69,1.25-1.36.83-2.04,1.97-2.04,3.41,0,1.11.36,2.09,1.08,2.95.72.86,2.05,1.95,3.99,3.28l3.41,2.33c6.32,4.54,9.47,9.97,9.47,16.29,0,5.32-1.88,9.5-5.65,12.55-3.77,3.05-8.95,4.57-15.54,4.57-1.77,0-3.68-.13-5.73-.37-2.05-.25-3.66-.54-4.82-.87v-11.8Z"/>
        <path class="cls-1" d="m452.92,82.37h38.31v12.22h-25.1v8.39h14.96v11.3h-14.96v13.21h25.59v12.22h-38.81v-57.34Z"/>
        <path class="cls-1" d="m499.54,82.37h23.6c6.43,0,11.37,1.44,14.83,4.32,3.46,2.88,5.19,6.98,5.19,12.3,0,6.48-2.83,11.61-8.48,15.37l10.39,25.35h-14.21l-7.73-20.53-10.3,3.07v17.45h-13.3v-57.34Zm19.45,26.59c3.77-1,6.45-2.19,8.06-3.57,1.61-1.38,2.41-3.27,2.41-5.65,0-1.83-.69-3.25-2.08-4.28-1.39-1.02-3.35-1.54-5.9-1.54h-8.64v16.7l6.15-1.66Z"/>
      </g>
    </g>
  </g>
</svg>